<svg xmlns="http://www.w3.org/2000/svg" xmlns:svg="http://www.w3.org/2000/svg" id="_x30_" width="32" height="32" x="0" y="0" enable-background="new 0 0 32 32" version="1.1" viewBox="0 0 32 32" xml:space="preserve"><metadata id="metadata91"/><g id="icon"><rect id="rect4" width="32" height="32" fill="#0F7391"/><g id="g6"><g id="_x30_.1.0.96.0.3"><circle id="_x30_.1.0.96.0.3.0" cx="23.885" cy="6.389" r=".453" fill="#FFF"/><circle id="_x30_.1.0.96.0.3.1" cx="22.756" cy="6.389" r=".453" fill="#FFF"/><circle id="_x30_.1.0.96.0.3.2" cx="21.626" cy="6.389" r=".453" fill="#FFF"/><circle id="_x30_.1.0.96.0.3.3" cx="20.497" cy="6.389" r=".453" fill="#FFF"/><circle id="_x30_.1.0.96.0.3.4" cx="19.367" cy="6.389" r=".453" fill="#FFF"/><circle id="_x30_.1.0.96.0.3.5" cx="18.238" cy="6.389" r=".453" fill="#FFF"/><circle id="_x30_.1.0.96.0.3.6" cx="17.107" cy="6.389" r=".453" fill="#FFF"/><circle id="_x30_.1.0.96.0.3.7" cx="15.979" cy="6.389" r=".453" fill="#FFF"/><circle id="_x30_.1.0.96.0.3.8" cx="14.849" cy="6.389" r=".453" fill="#FFF"/><circle id="_x30_.1.0.96.0.3.9" cx="13.72" cy="6.389" r=".453" fill="#FFF"/><circle id="_x30_.1.0.96.0.3.10" cx="12.589" cy="6.389" r=".453" fill="#FFF"/><circle id="_x30_.1.0.96.0.3.11" cx="11.46" cy="6.389" r=".453" fill="#FFF"/><circle id="_x30_.1.0.96.0.3.12" cx="10.33" cy="6.389" r=".453" fill="#FFF"/><circle id="_x30_.1.0.96.0.3.13" cx="9.202" cy="6.389" r=".453" fill="#FFF"/></g><g id="_x30_.1.0.96.0.4"><circle id="_x30_.1.0.96.0.4.0" cx="23.93" cy="18.252" r=".452" fill="#FFF"/><circle id="_x30_.1.0.96.0.4.1" cx="25.006" cy="18.04" r=".452" fill="#FFF"/><circle id="_x30_.1.0.96.0.4.2" cx="26.023" cy="17.633" r=".453" fill="#FFF"/><circle id="_x30_.1.0.96.0.4.3" cx="26.951" cy="17.049" r=".452" fill="#FFF"/><circle id="_x30_.1.0.96.0.4.4" cx="27.753" cy="16.303" r=".452" fill="#FFF"/><circle id="_x30_.1.0.96.0.4.5" cx="28.408" cy="15.423" r=".452" fill="#FFF"/><circle id="_x30_.1.0.96.0.4.6" cx="28.889" cy="14.439" r=".452" fill="#FFF"/><circle id="_x30_.1.0.96.0.4.7" cx="29.182" cy="13.383" r=".452" fill="#FFF"/><circle id="_x30_.1.0.96.0.4.8" cx="29.275" cy="12.29" r=".452" fill="#FFF"/><circle id="_x30_.1.0.96.0.4.9" cx="29.17" cy="11.2" r=".452" fill="#FFF"/><circle id="_x30_.1.0.96.0.4.10" cx="28.863" cy="10.147" r=".452" fill="#FFF"/><circle id="_x30_.1.0.96.0.4.11" cx="28.373" cy="9.168" r=".452" fill="#FFF"/><circle id="_x30_.1.0.96.0.4.12" cx="27.709" cy="8.296" r=".452" fill="#FFF"/><path id="_x30_.1.0.96.0.4.13" fill="#FFF" d="M26.896,7.107c0.25,0,0.453,0.203,0.453,0.453s-0.201,0.454-0.453,0.454 c-0.25,0-0.451-0.203-0.451-0.454C26.445,7.31,26.648,7.107,26.896,7.107z"/><circle id="_x30_.1.0.96.0.4.14" cx="25.965" cy="6.985" r=".453" fill="#FFF"/><circle id="_x30_.1.0.96.0.4.15" cx="24.941" cy="6.59" r=".453" fill="#FFF"/></g><g id="_x30_.1.0.96.0.5"><circle id="_x30_.1.0.96.0.5.0" cx="7.962" cy="18.177" r=".453" fill="#FFF"/><path id="_x30_.1.0.96.0.5.1" fill="#FFF" d="M6.902,17.498c0.25,0,0.453,0.203,0.453,0.453s-0.203,0.453-0.453,0.453 c-0.249,0-0.452-0.202-0.452-0.453C6.45,17.701,6.653,17.498,6.902,17.498z"/><circle id="_x30_.1.0.96.0.5.2" cx="5.899" cy="17.537" r=".453" fill="#FFF"/><circle id="_x30_.1.0.96.0.5.3" cx="4.99" cy="16.946" r=".453" fill="#FFF"/><circle id="_x30_.1.0.96.0.5.4" cx="4.203" cy="16.199" r=".453" fill="#FFF"/><circle id="_x30_.1.0.96.0.5.5" cx="3.566" cy="15.321" r=".453" fill="#FFF"/><circle id="_x30_.1.0.96.0.5.6" cx="3.1" cy="14.342" r=".453" fill="#FFF"/><circle id="_x30_.1.0.96.0.5.7" cx="2.818" cy="13.295" r=".453" fill="#FFF"/><circle id="_x30_.1.0.96.0.5.8" cx="2.733" cy="12.214" r=".453" fill="#FFF"/><path id="_x30_.1.0.96.0.5.9" fill="#FFF" d="M2.894,10.686c0.247,0.026,0.429,0.25,0.402,0.497 c-0.026,0.249-0.249,0.43-0.497,0.403c-0.249-0.026-0.428-0.249-0.403-0.5C2.423,10.839,2.646,10.658,2.894,10.686z"/><path id="_x30_.1.0.96.0.5.10" fill="#FFF" d="M3.284,9.661c0.238,0.071,0.376,0.324,0.305,0.562 c-0.071,0.241-0.323,0.378-0.563,0.307c-0.239-0.071-0.376-0.324-0.304-0.565C2.792,9.727,3.044,9.589,3.284,9.661z"/><circle id="_x30_.1.0.96.0.5.11" cx="3.646" cy="9.129" r=".453" fill="#FFF"/><circle id="_x30_.1.0.96.0.5.12" cx="4.307" cy="8.268" r=".452" fill="#FFF"/><circle id="_x30_.1.0.96.0.5.13" cx="5.111" cy="7.543" r=".453" fill="#FFF"/><path id="_x30_.1.0.96.0.5.14" fill="#FFF" d="M6.038,6.523c0.25,0,0.454,0.203,0.454,0.453S6.289,7.429,6.038,7.429 c-0.249,0-0.452-0.203-0.452-0.453S5.789,6.523,6.038,6.523z"/><circle id="_x30_.1.0.96.0.5.15" cx="7.05" cy="6.587" r=".453" fill="#FFF"/><circle id="_x30_.1.0.96.0.5.16" cx="8.117" cy="6.389" r=".453" fill="#FFF"/><circle id="_x30_.1.0.96.0.5.17" cx="9.202" cy="6.389" r=".453" fill="#FFF"/></g><g id="_x30_.1.0.96.0.6"><circle id="_x30_.1.0.96.0.6.1" cx="22.756" cy="18.292" r=".453" fill="#FFF"/><path id="_x30_.1.0.96.0.6.2" fill="#FFF" d="M21.626,17.839c0.25,0,0.453,0.202,0.453,0.452c0,0.251-0.202,0.454-0.453,0.454 c-0.25,0-0.454-0.203-0.454-0.454C21.173,18.042,21.376,17.839,21.626,17.839z"/><circle id="_x30_.1.0.96.0.6.3" cx="20.497" cy="18.292" r=".453" fill="#FFF"/><circle id="_x30_.1.0.96.0.6.4" cx="19.367" cy="18.292" r=".453" fill="#FFF"/><circle id="_x30_.1.0.96.0.6.5" cx="18.238" cy="18.292" r=".453" fill="#FFF"/><circle id="_x30_.1.0.96.0.6.6" cx="17.107" cy="18.292" r=".453" fill="#FFF"/><circle id="_x30_.1.0.96.0.6.7" cx="15.979" cy="18.292" r=".453" fill="#FFF"/><circle id="_x30_.1.0.96.0.6.8" cx="14.849" cy="18.292" r=".453" fill="#FFF"/><circle id="_x30_.1.0.96.0.6.9" cx="13.72" cy="18.292" r=".453" fill="#FFF"/><circle id="_x30_.1.0.96.0.6.10" cx="12.589" cy="18.292" r=".453" fill="#FFF"/><circle id="_x30_.1.0.96.0.6.11" cx="11.46" cy="18.292" r=".453" fill="#FFF"/><circle id="_x30_.1.0.96.0.6.12" cx="10.33" cy="18.292" r=".453" fill="#FFF"/><circle id="_x30_.1.0.96.0.6.13" cx="9.202" cy="18.292" r=".453" fill="#FFF"/></g><g id="_x30_.1.0.96.1"><path id="_x30_.1.0.96.1.0" fill="#FFF" d="M9.358,15.986c-0.792,0-1.388-0.164-1.789-0.493 c-0.387-0.319-0.636-0.7-0.746-1.143c-0.056-0.224-0.095-0.463-0.12-0.717c-0.023-0.253-0.036-0.526-0.036-0.816V8.644h0.749 v4.16c0,0.943,0.15,1.688,0.456,1.992c0.301,0.3,0.743,0.449,1.327,0.449c0.588,0,1.191-0.149,1.491-0.449 c0.304-0.302,0.456-1.047,0.456-1.992v-4.16h0.765v4.173c0,0.868-0.1,1.511-0.301,1.933 C11.213,15.574,10.559,15.986,9.358,15.986z"/><path id="_x30_.1.0.96.1.1" fill="#FFF" d="M18.993,15.85H18.24l-3.781-5.924v5.936h-0.635V8.644h0.701l3.715,5.942V8.644 h0.752L18.993,15.85L18.993,15.85z"/><path id="_x30_.1.0.96.1.2" fill="#FFF" d="M23.505,8.47c0.459,0,0.884,0.092,1.271,0.275c0.39,0.184,0.723,0.442,1.002,0.777 c0.281,0.335,0.496,0.738,0.652,1.209c0.156,0.47,0.233,0.994,0.233,1.569c0,0.574-0.078,1.097-0.233,1.567 c-0.156,0.472-0.373,0.876-0.652,1.212s-0.613,0.597-1.002,0.78c-0.385,0.184-0.812,0.275-1.271,0.275 c-0.462,0-0.887-0.093-1.276-0.275c-0.388-0.184-0.722-0.443-1.004-0.78c-0.283-0.336-0.5-0.741-0.656-1.212 c-0.154-0.469-0.233-0.993-0.233-1.567c0-0.575,0.079-1.098,0.233-1.569c0.156-0.471,0.375-0.875,0.656-1.209 c0.282-0.335,0.616-0.594,1.004-0.777C22.616,8.561,23.042,8.47,23.505,8.47z M23.5,15.294c0.327,0,0.629-0.067,0.904-0.205 c0.275-0.136,0.515-0.333,0.714-0.589c0.2-0.258,0.356-0.571,0.469-0.94c0.112-0.37,0.168-0.79,0.168-1.26 c0-0.472-0.056-0.892-0.168-1.262c-0.11-0.369-0.267-0.682-0.466-0.939c-0.198-0.256-0.436-0.453-0.708-0.587 c-0.274-0.133-0.573-0.2-0.896-0.2c-0.33,0-0.633,0.066-0.91,0.2c-0.279,0.134-0.519,0.329-0.721,0.583 c-0.203,0.255-0.359,0.568-0.475,0.939c-0.113,0.372-0.171,0.793-0.171,1.264c0,0.471,0.057,0.891,0.17,1.26 c0.11,0.37,0.267,0.683,0.469,0.939c0.199,0.257,0.438,0.455,0.713,0.591C22.869,15.227,23.172,15.294,23.5,15.294z"/></g></g><text style="font-style:normal;font-weight:400;font-size:40px;line-height:125%;font-family:sans-serif;letter-spacing:0;word-spacing:0;fill:#000;fill-opacity:1;stroke:none;stroke-width:1px;stroke-linecap:butt;stroke-linejoin:miter;stroke-opacity:1" id="text4219" x="11.322" y="25.831" xml:space="preserve"><tspan id="tspan4221" x="11.322" y="25.831" style="-inkscape-font-specification:'sans-serif, Normal';font-family:sans-serif;font-weight:400;font-style:normal;font-stretch:normal;font-variant:normal;font-size:5px;text-anchor:start;text-align:start;writing-mode:lr;line-height:125%;fill:#fff;fill-opacity:1">genuino</tspan></text></g></svg>