<svg xmlns="http://www.w3.org/2000/svg" xmlns:svg="http://www.w3.org/2000/svg" id="Layer_1" width="63" height="88" x="0" y="0" enable-background="new 0 0 24.518 33.002" version="1.1" viewBox="0 0 70 97.778" xml:space="preserve"><metadata id="metadata61"/><g id="layer1" transform="translate(0,64.775771)" style="display:inline;opacity:1"><g id="g4267" transform="matrix(1.6612402,0,0,1.6677557,-0.07062419,-22.037268)"><g id="g4229" transform="translate(-9.5870079,4.747942)"><path style="fill:red;fill-rule:evenodd;stroke:red;stroke-width:1.11111104px;stroke-linecap:butt;stroke-linejoin:miter;stroke-opacity:1" id="path4221" d="m 23.895074,11.490615 c 0,4.603637 -5.699742,8.549613 -6.576625,16.441563"/><path style="fill:none;fill-rule:evenodd;stroke:green;stroke-width:1.11111104px;stroke-linecap:butt;stroke-linejoin:miter;stroke-opacity:1" id="path4223" d="m 27.62183,12.209626 c 0,3.945976 -2.192209,11.618706 -2.192209,15.783902"/><path style="fill:none;fill-rule:evenodd;stroke:#ff0;stroke-width:1.11111104px;stroke-linecap:butt;stroke-linejoin:miter;stroke-opacity:1" id="path4225" d="m 32.883131,13.08651 c 1.096104,5.04208 2.192208,12.057147 2.192208,14.907018"/><path style="fill:none;fill-rule:evenodd;stroke:#000;stroke-width:1.11111104px;stroke-linecap:butt;stroke-linejoin:miter;stroke-opacity:1" id="path4227" d="m 38.363652,14.368226 c -0.438441,7.234289 5.261301,6.357405 5.699743,13.591694"/><rect style="fill:#ccab7e;fill-opacity:1;stroke:none;stroke-width:5;stroke-miterlimit:4;stroke-dasharray:none;stroke-opacity:1" id="rect4189" width="42.137" height="49.074" x="9.63" y="-30.374"/></g><circle id="path4236" cx="21.111" cy="-11.281" r="3.836" style="fill:#d93030;fill-opacity:1;stroke:none;stroke-width:1.11111104;stroke-miterlimit:4;stroke-dasharray:none;stroke-opacity:1"/><rect id="rect4238" width="2.631" height="3.179" x="6.577" y="29.823" style="fill:none;fill-opacity:1;stroke:none;stroke-width:1;stroke-miterlimit:4;stroke-dasharray:none;stroke-opacity:1"/><rect id="rect4238-8" width="2.631" height="3.179" x="14.469" y="29.823" style="display:inline;opacity:1;fill:none;fill-opacity:1;stroke:none;stroke-width:1;stroke-miterlimit:4;stroke-dasharray:none;stroke-opacity:1"/><rect id="rect4238-1" width="2.631" height="3.179" x="24.224" y="29.823" style="display:inline;opacity:1;fill:none;fill-opacity:1;stroke:none;stroke-width:1;stroke-miterlimit:4;stroke-dasharray:none;stroke-opacity:1"/><rect id="rect4238-9" width="2.631" height="3.179" x="32.993" y="29.823" style="display:inline;opacity:1;fill:none;fill-opacity:1;stroke:none;stroke-width:1;stroke-miterlimit:4;stroke-dasharray:none;stroke-opacity:1"/></g></g></svg>